
<svg xmlns="http://www.w3.org/2000/svg" fill="none" viewBox="0 0 468 216">
  <g clip-path="url(#a)">
    <g filter="url(#b)">
      <g clip-path="url(#c)">
        <rect width="266" height="223" x="113" y="19" fill="#fff" rx="4"/>
        <path fill="#D7DEE5" d="M113 19h266v3H113z"/>
        <path fill="#364554" d="M130.886 47h-1.648l2.511-7.273h1.981L136.237 47h-1.648l-1.821-5.61h-.057L130.886 47Zm-.103-2.859h3.892v1.2h-3.892v-1.2Zm8.512 2.965c-.559 0-1.04-.118-1.442-.355-.4-.239-.708-.57-.923-.994-.213-.424-.32-.911-.32-1.463 0-.559.108-1.049.323-1.47.218-.424.527-.754.927-.99.4-.24.876-.36 1.428-.36.475 0 .892.087 1.25.26.357.172.64.415.848.728.209.312.324.68.345 1.1h-1.428a1.105 1.105 0 0 0-.319-.656c-.171-.169-.395-.253-.672-.253-.234 0-.439.064-.614.192a1.218 1.218 0 0 0-.405.55 2.355 2.355 0 0 0-.145.878c0 .348.047.644.142.887.097.244.233.43.408.558.175.128.38.192.614.192.173 0 .328-.036.466-.107a.903.903 0 0 0 .344-.309c.092-.137.153-.301.181-.493h1.428a2.235 2.235 0 0 1-.341 1.1 2.054 2.054 0 0 1-.835.74c-.355.177-.775.265-1.26.265Zm3.404-.106v-5.455h1.442v.963h.064c.114-.32.303-.572.568-.757.265-.184.583-.277.952-.277.374 0 .692.094.955.281.263.185.438.436.526.753h.057a1.45 1.45 0 0 1 .603-.75 1.88 1.88 0 0 1 1.041-.284c.509 0 .922.163 1.239.487.32.322.48.779.48 1.37V47h-1.51v-3.37c0-.303-.08-.53-.241-.682a.846.846 0 0 0-.604-.227c-.274 0-.489.088-.643.263-.154.172-.23.4-.23.685V47h-1.467v-3.402c0-.267-.077-.48-.231-.64a.79.79 0 0 0-.6-.237.836.836 0 0 0-.455.128.882.882 0 0 0-.316.351c-.078.15-.117.325-.117.526V47h-1.513Zm11.607.106c-.561 0-1.044-.113-1.449-.34a2.338 2.338 0 0 1-.93-.973c-.218-.422-.327-.92-.327-1.495 0-.562.109-1.054.327-1.478.218-.423.524-.754.92-.99.397-.237.864-.356 1.399-.356.36 0 .695.058 1.005.174.312.114.585.286.817.515.234.23.416.519.547.867.13.346.195.75.195 1.214v.416h-4.606v-.938h3.182c0-.218-.048-.41-.142-.578a1.02 1.02 0 0 0-.394-.395 1.126 1.126 0 0 0-.579-.145c-.23 0-.433.053-.611.16a1.119 1.119 0 0 0-.412.422c-.099.175-.15.37-.153.586v.891c0 .27.05.503.149.7.102.196.246.348.43.455.185.106.404.16.657.16.168 0 .322-.024.462-.072a.92.92 0 0 0 .586-.561l1.399.093c-.071.336-.217.63-.437.88a2.191 2.191 0 0 1-.845.583c-.343.137-.74.205-1.19.205Zm7.372-7.379V47h-1.538v-7.273h1.538Zm2.749 4.12V47h-1.513v-5.455h1.442v.963h.064c.121-.317.323-.568.607-.753.284-.187.629-.28 1.034-.28.378 0 .709.082.99.248.282.166.501.403.657.71.157.306.235.67.235 1.094V47h-1.513v-3.203c.002-.334-.083-.594-.256-.781-.173-.19-.411-.285-.714-.285-.203 0-.383.044-.539.132a.92.92 0 0 0-.363.383 1.328 1.328 0 0 0-.131.6Zm7.172 3.26c-.558 0-1.039-.119-1.441-.356-.4-.239-.708-.57-.924-.994-.213-.424-.319-.911-.319-1.463 0-.559.107-1.049.323-1.47.218-.424.527-.754.927-.99.4-.24.876-.36 1.427-.36.476 0 .893.087 1.25.26.358.172.641.415.849.728.208.312.323.68.345 1.1h-1.428a1.1 1.1 0 0 0-.32-.656c-.17-.169-.394-.253-.671-.253-.234 0-.439.064-.614.192a1.218 1.218 0 0 0-.405.55 2.354 2.354 0 0 0-.146.878c0 .348.048.644.142.887.098.244.234.43.409.558.175.128.38.192.614.192a.996.996 0 0 0 .465-.107.898.898 0 0 0 .345-.309c.092-.137.153-.301.181-.493h1.428a2.245 2.245 0 0 1-.341 1.1c-.202.315-.48.562-.835.74-.355.177-.775.265-1.261.265Zm4.289-.015a.828.828 0 0 1-.603-.248.829.829 0 0 1-.249-.604c0-.232.083-.43.249-.596a.828.828 0 0 1 .603-.25.83.83 0 0 1 .597.25c.17.165.256.364.256.596 0 .156-.041.3-.121.43a.915.915 0 0 1-.309.309.815.815 0 0 1-.423.113Z"/>
        <rect width="64" height="4" x="129" y="54" fill="#CDD6DF" rx="2"/>
        <rect width="42" height="4" x="129" y="64" fill="#CDD6DF" rx="2"/>
        <rect width="60" height="4" x="129" y="74" fill="#CDD6DF" rx="2"/>
        <rect width="68" height="4" x="129" y="84" fill="#CDD6DF" rx="2"/>
        <rect width="48" height="4" x="129" y="94" fill="#CDD6DF" rx="2"/>
        <path fill="#364554" d="M315.29 39.182V45h-1.23v-5.818h1.23Zm2.2 3.295V45h-1.21v-4.364h1.153v.77h.051c.097-.253.259-.454.486-.602.227-.15.503-.224.827-.224.303 0 .567.066.792.198.226.133.401.322.526.569a1.9 1.9 0 0 1 .188.875V45h-1.211v-2.563c.002-.267-.066-.475-.204-.624-.138-.152-.329-.228-.571-.228a.87.87 0 0 0-.432.105.733.733 0 0 0-.29.307 1.067 1.067 0 0 0-.105.48Zm7.678-1.84L323.643 45h-1.364l-1.525-4.364h1.278l.906 3.122h.046l.903-3.122h1.281Zm2.451 4.448c-.442 0-.823-.093-1.145-.281a1.925 1.925 0 0 1-.742-.79 2.547 2.547 0 0 1-.261-1.179c0-.45.087-.845.261-1.182.174-.339.422-.602.742-.79.322-.189.703-.283 1.145-.283.441 0 .822.094 1.142.284.322.187.57.45.744.79.174.336.261.73.261 1.181 0 .447-.087.84-.261 1.18-.174.336-.422.6-.744.789-.32.188-.701.281-1.142.281Zm.005-.937a.751.751 0 0 0 .503-.17c.135-.116.236-.273.304-.472.07-.2.105-.425.105-.68 0-.253-.035-.48-.105-.678a1.052 1.052 0 0 0-.304-.472.744.744 0 0 0-.503-.173.77.77 0 0 0-.511.173 1.07 1.07 0 0 0-.31.472 2.094 2.094 0 0 0-.102.679c0 .254.034.48.102.679.07.199.174.356.31.471.138.114.309.17.511.17Zm2.929.852v-4.364h1.21V45h-1.21Zm.608-4.926a.658.658 0 0 1-.463-.18.58.58 0 0 1-.19-.434c0-.166.063-.31.19-.429a.652.652 0 0 1 .463-.182c.18 0 .334.061.46.182a.576.576 0 0 1 0 .864.646.646 0 0 1-.46.179Zm3.544 5.011c-.447 0-.832-.095-1.154-.284a1.926 1.926 0 0 1-.739-.795 2.577 2.577 0 0 1-.255-1.17c0-.448.086-.84.258-1.177.175-.339.422-.603.742-.792.32-.192.701-.287 1.142-.287.381 0 .714.069 1 .207.286.138.512.332.679.582.167.25.258.544.275.881h-1.142a.882.882 0 0 0-.255-.526.734.734 0 0 0-.537-.201.812.812 0 0 0-.492.153.981.981 0 0 0-.324.44 1.897 1.897 0 0 0-.116.702c0 .279.038.515.114.71a.98.98 0 0 0 .326.446c.14.103.304.154.492.154a.799.799 0 0 0 .372-.085.709.709 0 0 0 .275-.248.935.935 0 0 0 .145-.394h1.142a1.787 1.787 0 0 1-.272.88 1.65 1.65 0 0 1-.668.591c-.284.142-.62.213-1.008.213Zm4.712 0c-.449 0-.835-.09-1.159-.273a1.874 1.874 0 0 1-.745-.778c-.174-.337-.261-.736-.261-1.196 0-.449.087-.843.261-1.182a1.94 1.94 0 0 1 .736-.792c.318-.19.692-.284 1.12-.284.287 0 .555.046.804.139.25.09.467.228.653.412.187.183.333.414.437.693.105.276.157.6.157.971v.333h-3.685v-.75h2.546a.924.924 0 0 0-.114-.463.818.818 0 0 0-.315-.316.902.902 0 0 0-.464-.116.93.93 0 0 0-.488.128.901.901 0 0 0-.33.338.961.961 0 0 0-.122.469v.713c0 .216.04.402.119.56a.876.876 0 0 0 .344.363c.148.085.323.128.526.128.134 0 .257-.02.369-.057a.74.74 0 0 0 .469-.449l1.119.074a1.53 1.53 0 0 1-.349.705c-.174.198-.4.354-.676.465-.275.11-.592.165-.952.165Zm6.849-.085.954-5.818h.909L347.175 45h-.909Zm-2.605-1.443.15-.91h4.546l-.151.91h-4.545ZM344.22 45l.955-5.818h.909L345.129 45h-.909Zm-.227-3.466.153-.909h4.546l-.154.91h-4.545Zm7.783-2.352V45h-1.23v-4.65h-.034l-1.332.835v-1.091l1.44-.912h1.156ZM353.159 45v-.886l2.071-1.918c.176-.17.324-.324.443-.46.122-.137.213-.27.276-.4a1 1 0 0 0 .094-.43.805.805 0 0 0-.117-.44.77.77 0 0 0-.318-.287.998.998 0 0 0-.457-.102.96.96 0 0 0-.466.108.741.741 0 0 0-.307.31 1.004 1.004 0 0 0-.108.48h-1.168c0-.381.086-.712.259-.992.172-.28.414-.497.724-.65.311-.154.669-.23 1.074-.23.417 0 .779.073 1.088.22.311.147.552.35.725.609.172.26.258.557.258.892 0 .22-.043.436-.131.65-.085.214-.237.452-.457.714-.22.259-.529.57-.929.934l-.849.833v.04h2.443V45h-4.148Zm7.19.08a2.79 2.79 0 0 1-1.134-.22 1.934 1.934 0 0 1-.781-.607 1.533 1.533 0 0 1-.293-.898h1.239a.65.65 0 0 0 .139.375.857.857 0 0 0 .347.247c.144.059.306.088.486.088.187 0 .353-.033.497-.1a.818.818 0 0 0 .338-.275.698.698 0 0 0 .122-.406.681.681 0 0 0-.131-.412.832.832 0 0 0-.369-.284 1.437 1.437 0 0 0-.568-.102h-.543v-.904h.543c.185 0 .349-.032.491-.096a.788.788 0 0 0 .335-.267c.08-.116.12-.25.12-.404a.698.698 0 0 0-.395-.645.942.942 0 0 0-.432-.093c-.167 0-.319.03-.457.09a.8.8 0 0 0-.333.253.662.662 0 0 0-.133.387h-1.179c.005-.335.101-.63.287-.887.185-.255.435-.455.75-.599a2.528 2.528 0 0 1 1.071-.219c.401 0 .753.073 1.054.219.301.146.535.343.701.59.169.247.252.524.25.83.002.326-.099.598-.304.816a1.379 1.379 0 0 1-.792.415v.045c.428.055.754.204.977.446.226.24.337.542.335.904.002.33-.093.625-.287.883-.191.258-.455.46-.792.608a2.865 2.865 0 0 1-1.159.222Z"/>
        <rect width="42" height="3" x="129" y="120.5" fill="#92A6BA" rx="1.5"/>
        <path fill="#364554" d="M302.857 125.648v2.048c-.624.32-1.296.464-2.256.464-2.464 0-4.272-1.424-4.864-3.84h-1.712v-1.328h1.504c-.016-.32-.016-.624 0-.992h-1.504v-1.312h1.728c.64-2.32 2.432-3.664 4.848-3.664.96 0 1.648.128 2.256.416v2.096c-.576-.352-1.264-.528-2.016-.528-1.28 0-2.224.592-2.688 1.68h3.216V122h-3.664c-.032.32-.032.672-.016.992h3.68v1.328h-3.264c.448 1.184 1.424 1.84 2.736 1.84.752 0 1.52-.192 2.016-.512Zm8.391 2.352h-2.224v-8.896h-2.048v-1.92h4.272V128Zm5.782.128c-2.464 0-4.176-1.648-4.176-3.584 0-1.36.4-2.224 1.408-3.424l3.264-3.936h2.512l-3.104 3.792c.176-.064.352-.08.528-.08 2.208 0 3.76 1.456 3.76 3.504 0 2.08-1.728 3.728-4.192 3.728Zm.016-1.856c1.008 0 1.872-.64 1.872-1.792 0-1.232-.864-1.84-1.872-1.84s-1.872.56-1.872 1.824c0 1.168.864 1.808 1.872 1.808Zm13.839-.4h-1.52V128h-2.208v-2.128h-5.136v-1.648l5.584-7.04h1.76v6.752h1.52v1.936Zm-6.432-1.936h2.704v-3.568l-2.704 3.568Zm15.818.928c0 1.92-1.664 3.28-4.144 3.28-2.528 0-4.176-1.36-4.176-3.28 0-1.184.768-2.016 1.824-2.48-.848-.464-1.456-1.216-1.456-2.256 0-1.792 1.536-3.104 3.808-3.104 2.24 0 3.776 1.312 3.776 3.104 0 1.04-.608 1.792-1.456 2.256 1.04.464 1.824 1.296 1.824 2.48Zm-5.664-4.656c0 .816.576 1.328 1.52 1.328.912 0 1.504-.512 1.504-1.328 0-.88-.592-1.424-1.504-1.424-.944 0-1.52.544-1.52 1.424Zm-.368 4.608c0 .976.72 1.568 1.888 1.568 1.136 0 1.872-.592 1.872-1.568 0-.928-.736-1.52-1.872-1.52-1.168 0-1.888.592-1.888 1.52Zm10.095 1.76c0 .88-.608 1.504-1.488 1.504s-1.504-.624-1.504-1.504c0-.896.624-1.52 1.504-1.52s1.488.624 1.488 1.52Zm8.924-.56V128h-7.552v-1.264l3.28-3.36c1.248-1.28 1.776-1.952 1.776-2.896 0-.88-.592-1.472-1.536-1.472-1.04 0-1.68.656-1.68 1.712h-2.16c0-2.16 1.632-3.696 3.952-3.696 2.16 0 3.744 1.36 3.744 3.184 0 1.312-.48 2.144-2.368 4.048l-1.632 1.76h4.176Zm5.193 2.144c-2.304 0-4.048-1.44-4.112-3.456h2.224c.128.944.864 1.472 1.872 1.472 1.312 0 1.808-.832 1.808-1.712 0-.848-.56-1.712-1.872-1.712-.864 0-1.504.352-1.84 1.088l-1.824-.592.944-6.064h6.256v1.984h-4.64l-.336 2.208a3.294 3.294 0 0 1 1.808-.512c2.576 0 3.808 1.776 3.808 3.6 0 1.856-1.376 3.696-4.096 3.696Z"/>
        <mask id="d" fill="#fff">
          <path d="M129 146h117v24H129v-24Z"/>
        </mask>
        <path fill="#E0E5EB" d="M246 169H129v2h117v-2Z" mask="url(#d)"/>
        <rect width="52" height="3" x="129" y="156.5" fill="#CDD6DF" rx="1.5"/>
        <mask id="e" fill="#fff">
          <path d="M246 146h117v24H246v-24Z"/>
        </mask>
        <path fill="#E0E5EB" d="M363 169H246v2h117v-2Z" mask="url(#e)"/>
        <rect width="52" height="3" x="311" y="156.5" fill="#CDD6DF" rx="1.5"/>
        <mask id="f" fill="#fff">
          <path d="M129 170h117v24H129v-24Z"/>
        </mask>
        <path fill="#F5F7F8" d="M246 193H129v2h117v-2Z" mask="url(#f)"/>
        <rect width="32" height="4" x="129" y="180" fill="#CDD6DF" rx="2"/>
        <mask id="g" fill="#fff">
          <path d="M246 170h117v24H246v-24Z"/>
        </mask>
        <path fill="#F5F7F8" d="M363 193H246v2h117v-2Z" mask="url(#g)"/>
        <rect width="56.24" height="4.16" x="306.76" y="179.92" fill="#5B758F" rx="2.08"/>
        <mask id="h" fill="#fff">
          <path d="M129 194h117v24H129v-24Z"/>
        </mask>
        <path fill="#F5F7F8" d="M246 217H129v2h117v-2Z" mask="url(#h)"/>
        <rect width="56.24" height="4" x="129" y="204" fill="#CDD6DF" rx="2"/>
        <mask id="i" fill="#fff">
          <path d="M246 194h117v24H246v-24Z"/>
        </mask>
        <path fill="#F5F7F8" d="M363 217H246v2h117v-2Z" mask="url(#i)"/>
        <rect width="40.24" height="4.16" x="322.76" y="203.92" fill="#5B758F" rx="2.08"/>
      </g>
    </g>
    <g filter="url(#j)">
      <rect width="138" height="187" x="89" y="38.5" fill="#fff" rx="4"/>
      <rect width="139" height="188" x="88.5" y="38" stroke="url(#k)" stroke-opacity=".05" rx="4.5"/>
      <path fill="#364554" d="M136.408 57.5v-5.818h2.295c.442 0 .818.084 1.128.253.311.166.548.398.711.696.164.295.247.636.247 1.022 0 .387-.084.728-.25 1.023a1.723 1.723 0 0 1-.725.69c-.314.165-.695.248-1.142.248h-1.463v-.986h1.264c.237 0 .432-.04.586-.122a.811.811 0 0 0 .346-.344c.078-.148.117-.317.117-.509 0-.193-.039-.361-.117-.505a.779.779 0 0 0-.346-.338 1.27 1.27 0 0 0-.591-.123h-.83V57.5h-1.23Zm6.284.082c-.278 0-.526-.048-.744-.145a1.198 1.198 0 0 1-.517-.434c-.125-.193-.188-.434-.188-.722 0-.242.045-.446.134-.61.089-.165.21-.298.363-.398.154-.1.328-.176.523-.228.197-.05.404-.087.619-.108.254-.026.459-.05.614-.073a.872.872 0 0 0 .338-.108.237.237 0 0 0 .105-.21v-.018c0-.18-.057-.319-.17-.417-.112-.099-.271-.148-.477-.148-.218 0-.392.048-.52.145a.668.668 0 0 0-.256.358l-1.119-.091c.056-.265.168-.494.335-.688.167-.195.382-.344.645-.448.265-.106.572-.16.92-.16.243 0 .475.029.696.086.224.057.422.145.594.264.174.12.312.273.412.46.1.186.151.408.151.668V57.5h-1.148v-.605h-.034a1.225 1.225 0 0 1-.705.602 1.75 1.75 0 0 1-.571.085Zm.347-.835c.178 0 .335-.035.471-.105a.826.826 0 0 0 .321-.29.745.745 0 0 0 .117-.412v-.463a.657.657 0 0 1-.156.069 2.985 2.985 0 0 1-.219.053c-.082.016-.163.03-.245.043l-.221.031c-.142.021-.266.054-.372.1a.59.59 0 0 0-.247.184.448.448 0 0 0-.088.285c0 .164.059.29.178.377a.785.785 0 0 0 .461.128Zm3.64 2.39a2.38 2.38 0 0 1-.431-.038 1.572 1.572 0 0 1-.33-.088l.273-.903c.142.044.27.067.383.071a.489.489 0 0 0 .299-.08.593.593 0 0 0 .207-.29l.071-.184-1.565-4.489h1.272l.904 3.205h.045l.912-3.205H150l-1.696 4.836c-.081.234-.192.439-.332.613a1.362 1.362 0 0 1-.526.407 1.839 1.839 0 0 1-.767.144Zm5.792-1.637v-4.364h1.21V57.5h-1.21Zm.608-4.926a.658.658 0 0 1-.463-.18.58.58 0 0 1-.19-.434c0-.166.063-.31.19-.429a.652.652 0 0 1 .463-.182c.18 0 .334.061.46.182a.576.576 0 0 1 0 .864.646.646 0 0 1-.46.179Zm2.782 2.403V57.5h-1.21v-4.364h1.153v.77h.051c.097-.253.259-.454.486-.602.228-.15.503-.224.827-.224.303 0 .567.066.793.198.225.133.4.322.525.569a1.9 1.9 0 0 1 .188.875V57.5h-1.211v-2.563c.002-.267-.066-.475-.204-.624-.138-.152-.329-.228-.571-.228a.87.87 0 0 0-.432.105.733.733 0 0 0-.29.307 1.067 1.067 0 0 0-.105.48Zm7.678-1.84-1.525 4.363h-1.364l-1.525-4.364h1.278l.906 3.122h.046l.903-3.122h1.281Zm2.451 4.448c-.442 0-.823-.093-1.145-.281a1.932 1.932 0 0 1-.742-.79 2.547 2.547 0 0 1-.261-1.179c0-.45.087-.845.261-1.182.175-.339.422-.602.742-.79.322-.189.703-.283 1.145-.283.441 0 .822.094 1.142.284.322.187.57.45.744.79.174.336.261.73.261 1.181 0 .447-.087.84-.261 1.18-.174.336-.422.6-.744.789-.32.188-.701.281-1.142.281Zm.005-.937a.751.751 0 0 0 .503-.17c.135-.116.236-.273.304-.472.07-.2.105-.425.105-.68 0-.253-.035-.48-.105-.678a1.052 1.052 0 0 0-.304-.472.744.744 0 0 0-.503-.173.77.77 0 0 0-.511.173 1.07 1.07 0 0 0-.31.472 2.094 2.094 0 0 0-.102.679c0 .254.034.48.102.679.07.199.174.356.31.471.138.114.309.17.511.17Zm2.929.852v-4.364h1.211V57.5h-1.211Zm.608-4.926a.658.658 0 0 1-.463-.18.58.58 0 0 1-.19-.434c0-.166.063-.31.19-.429a.652.652 0 0 1 .463-.182c.18 0 .334.061.461.182a.579.579 0 0 1 0 .864.65.65 0 0 1-.461.179Zm3.544 5.011c-.447 0-.832-.095-1.154-.284a1.917 1.917 0 0 1-.738-.795 2.565 2.565 0 0 1-.256-1.17c0-.448.086-.84.258-1.177.175-.339.422-.603.742-.792.32-.192.701-.287 1.142-.287.381 0 .714.069 1 .207.286.138.512.332.679.582.167.25.258.544.276.881h-1.143a.882.882 0 0 0-.255-.526.734.734 0 0 0-.537-.201.814.814 0 0 0-.492.153.972.972 0 0 0-.323.44 1.875 1.875 0 0 0-.117.702c0 .279.038.515.114.71a.98.98 0 0 0 .326.446.814.814 0 0 0 .492.154.799.799 0 0 0 .372-.085.719.719 0 0 0 .276-.248.948.948 0 0 0 .144-.394h1.143c-.019.333-.11.627-.273.88a1.65 1.65 0 0 1-.668.591c-.284.142-.62.213-1.008.213Zm4.712 0c-.449 0-.835-.09-1.159-.273a1.866 1.866 0 0 1-.744-.778c-.175-.337-.262-.736-.262-1.196 0-.449.087-.843.262-1.182a1.93 1.93 0 0 1 .735-.792c.319-.19.692-.284 1.12-.284.288 0 .556.046.804.139.25.09.467.228.653.412.188.183.333.414.438.693.104.276.156.6.156.971v.333h-3.685v-.75h2.546a.924.924 0 0 0-.114-.463.818.818 0 0 0-.315-.316.901.901 0 0 0-.463-.116.932.932 0 0 0-.489.128.901.901 0 0 0-.33.338.961.961 0 0 0-.122.469v.713c0 .216.04.402.12.56a.873.873 0 0 0 .343.363c.148.085.323.128.526.128.134 0 .257-.02.369-.057a.74.74 0 0 0 .469-.449l1.119.074a1.53 1.53 0 0 1-.349.705c-.174.198-.4.354-.676.465-.275.11-.592.165-.952.165Z"/>
      <rect width="42" height="3" x="101" y="72.5" fill="#CDD6DF" rx="1.5"/>
      <rect width="113.2" height="13.2" x="101.4" y="81.9" fill="#fff" rx="2.6"/>
      <rect width="113.2" height="13.2" x="101.4" y="81.9" stroke="#F5F7F8" stroke-width=".8" rx="2.6"/>
      <rect width="52" height="3" x="109" y="87" fill="#92A6BA" rx="1.5"/>
      <rect width="29" height="3" x="101" y="101.5" fill="#CDD6DF" rx="1.5"/>
      <rect width="113.2" height="13.2" x="101.4" y="110.9" fill="#fff" rx="2.6"/>
      <rect width="113.2" height="13.2" x="101.4" y="110.9" stroke="#F5F7F8" stroke-width=".8" rx="2.6"/>
      <rect width="52" height="3" x="109" y="116" fill="#92A6BA" rx="1.5"/>
      <rect width="17" height="3" x="101" y="130.5" fill="#CDD6DF" rx="1.5"/>
      <rect width="52.2" height="13.2" x="101.4" y="139.9" fill="#fff" rx="2.6"/>
      <rect width="52.2" height="13.2" x="101.4" y="139.9" stroke="#F5F7F8" stroke-width=".8" rx="2.6"/>
      <rect width="24" height="3" x="109" y="145" fill="#92A6BA" rx="1.5"/>
      <rect width="25" height="3" x="162" y="130.5" fill="#CDD6DF" rx="1.5"/>
      <rect width="52.2" height="13.2" x="162.4" y="139.9" fill="#fff" rx="2.6"/>
      <rect width="52.2" height="13.2" x="162.4" y="139.9" stroke="#F5F7F8" stroke-width=".8" rx="2.6"/>
      <rect width="14" height="3" x="170" y="145" fill="#92A6BA" rx="1.5"/>
      <rect width="114" height="14" x="101" y="161.5" fill="#D7DEE5" rx="3"/>
      <rect width="114" height="14" x="101" y="179.5" fill="#F5F7F8" rx="3"/>
    </g>
    <path fill="url(#l)" d="M0 184h468v32H0z"/>
  </g>
  <defs>
    <linearGradient id="k" x1="158" x2="158" y1="38.5" y2="225.5" gradientUnits="userSpaceOnUse">
      <stop stop-color="#2A337A"/>
      <stop offset="1" stop-color="#2A337A" stop-opacity="0"/>
    </linearGradient>
    <linearGradient id="l" x1="234" x2="234" y1="216" y2="184" gradientUnits="userSpaceOnUse">
      <stop stop-color="#FAFBFB"/>
      <stop offset="1" stop-color="#FAFBFB" stop-opacity="0"/>
    </linearGradient>
    <clipPath id="a">
      <path fill="#fff" d="M0 0h468v216H0z"/>
    </clipPath>
    <clipPath id="c">
      <rect width="266" height="223" x="113" y="19" fill="#fff" rx="4"/>
    </clipPath>
    <filter id="b" width="342" height="299" x="75" y="6" color-interpolation-filters="sRGB" filterUnits="userSpaceOnUse">
      <feFlood flood-opacity="0" result="BackgroundImageFix"/>
      <feColorMatrix in="SourceAlpha" result="hardAlpha" values="0 0 0 0 0 0 0 0 0 0 0 0 0 0 0 0 0 0 127 0"/>
      <feMorphology in="SourceAlpha" radius="12" result="effect1_dropShadow_820_484"/>
      <feOffset dy="25"/>
      <feGaussianBlur stdDeviation="25"/>
      <feColorMatrix values="0 0 0 0 0.164706 0 0 0 0 0.2 0 0 0 0 0.478431 0 0 0 0.25 0"/>
      <feBlend in2="BackgroundImageFix" result="effect1_dropShadow_820_484"/>
      <feBlend in="SourceGraphic" in2="effect1_dropShadow_820_484" result="shape"/>
    </filter>
    <filter id="j" width="216" height="265" x="50" y="24.5" color-interpolation-filters="sRGB" filterUnits="userSpaceOnUse">
      <feFlood flood-opacity="0" result="BackgroundImageFix"/>
      <feColorMatrix in="SourceAlpha" result="hardAlpha" values="0 0 0 0 0 0 0 0 0 0 0 0 0 0 0 0 0 0 127 0"/>
      <feMorphology in="SourceAlpha" radius="12" result="effect1_dropShadow_820_484"/>
      <feOffset dy="25"/>
      <feGaussianBlur stdDeviation="25"/>
      <feColorMatrix values="0 0 0 0 0.396078 0 0 0 0 0.486275 0 0 0 0 0.92549 0 0 0 0.25 0"/>
      <feBlend in2="BackgroundImageFix" result="effect1_dropShadow_820_484"/>
      <feBlend in="SourceGraphic" in2="effect1_dropShadow_820_484" result="shape"/>
    </filter>
  </defs>
</svg>